<?xml version="1.0" encoding="UTF-8" standalone="no"?>
<svg
   version="1.1"
   id="Layer_1"
   x="0px"
   y="0px"
   width="100px"
   height="100px"
   viewBox="0 0 100 100"
   enable-background="new 0 0 100 100"
   xml:space="preserve"
   sodipodi:docname="teaa.svg"
   inkscape:version="1.3.2 (091e20e, 2023-11-25)"
   xmlns:inkscape="http://www.inkscape.org/namespaces/inkscape"
   xmlns:sodipodi="http://sodipodi.sourceforge.net/DTD/sodipodi-0.dtd"
   xmlns="http://www.w3.org/2000/svg"
   xmlns:svg="http://www.w3.org/2000/svg"><defs
   id="defs4" /><sodipodi:namedview
   id="namedview4"
   pagecolor="#ffffff"
   bordercolor="#666666"
   borderopacity="1.0"
   inkscape:showpageshadow="2"
   inkscape:pageopacity="0.0"
   inkscape:pagecheckerboard="0"
   inkscape:deskcolor="#d1d1d1"
   inkscape:zoom="2.94"
   inkscape:cx="49.659864"
   inkscape:cy="49.829932"
   inkscape:window-width="1392"
   inkscape:window-height="1212"
   inkscape:window-x="738"
   inkscape:window-y="25"
   inkscape:window-maximized="0"
   inkscape:current-layer="Layer_1" />
<path
   d="M72.31,69.335c2.334,1.65,5.198,2.62,7.919,2.62h3.181c6.231,0,11.3-5.069,11.3-11.301c0-6.23-5.068-11.299-11.3-11.299  h-7.983v-0.729H15.713v4.289c0,0.244,0.011,0.486,0.026,0.728c-0.016,0.431-0.026,0.861-0.026,1.296  c0,11.43,5.473,21.475,13.734,27.227H7.85c-1.413,0-2.559,1.146-2.559,2.559c0,1.414,1.146,2.559,2.559,2.559h8.99  c0,1.016,0.823,1.84,1.838,1.84H72.46c1.016,0,1.839-0.824,1.839-1.84h8.989c1.413,0,2.559-1.145,2.559-2.559  c0-1.412-1.146-2.559-2.559-2.559H61.685C66.209,79.015,69.897,74.581,72.31,69.335z M75.421,55.27h7.988  c2.97,0,5.386,2.416,5.386,5.385c0,2.97-2.416,5.386-5.386,5.386h-3.181c-2.038,0-4.438-1.12-5.821-2.709  C75.045,60.757,75.396,58.055,75.421,55.27z"
   id="path1"
   style="fill:#008080" />



</svg>
